HIERARCHY
ROOT Hips
{
	OFFSET -3.958830 18.904000 13.208200
	CHANNELS 6 Xposition Yposition Zposition Zrotation Yrotation Xrotation 
	JOINT LHipJoint
	{
		OFFSET 0.000000 0.000000 0.000000
		CHANNELS 3 Zrotation Yrotation Xrotation
		JOINT LeftUpLeg
		{
			OFFSET 1.800000 -1.400000 0.085000
			CHANNELS 3 Zrotation Yrotation Xrotation
			JOINT LeftLeg
			{
				OFFSET 2.215000 -6.000000 0.000000
				CHANNELS 3 Zrotation Yrotation Xrotation
				JOINT LeftFoot
				{
					OFFSET 2.500000 -6.900000 0.000000
					CHANNELS 3 Zrotation Yrotation Xrotation
					JOINT LeftToeBase
					{
						OFFSET 0.200000 -0.500000 1.950000
						CHANNELS 3 Zrotation Yrotation Xrotation
						End Site
						{
							OFFSET 0.000000 0.000000 0.000000
						}
					}
				}
			}
		}
	}
	JOINT RHipJoint
	{
		OFFSET 0.000000 0.000000 0.000000
		CHANNELS 3 Zrotation Yrotation Xrotation
		JOINT RightUpLeg
		{
			OFFSET -1.800000 -1.400000 0.085000
			CHANNELS 3 Zrotation Yrotation Xrotation
			JOINT RightLeg
			{
				OFFSET -2.215000 -6.000000 0.000000
				CHANNELS 3 Zrotation Yrotation Xrotation
				JOINT RightFoot
				{
					OFFSET -2.500000 -6.900000 0.000000
					CHANNELS 3 Zrotation Yrotation Xrotation
					JOINT RightToeBase
					{
						OFFSET -0.200000 -0.500000 1.950000
						CHANNELS 3 Zrotation Yrotation Xrotation
						End Site
						{
							OFFSET 0.000000 0.000000 0.000000
						}
					}
				}
			}
		}
	}
	JOINT LowerBack
	{
		OFFSET 0.000000 0.000000 0.000000
		CHANNELS 3 Zrotation Yrotation Xrotation
		JOINT Spine
		{
			OFFSET -0.087000 1.940000 -0.288900
			CHANNELS 3 Zrotation Yrotation Xrotation
			JOINT Spine1
			{
				OFFSET 0.000000 1.950000 0.060000
				CHANNELS 3 Zrotation Yrotation Xrotation
				JOINT Neck
				{
					OFFSET 0.000000 0.000000 0.000000
					CHANNELS 3 Zrotation Yrotation Xrotation
					JOINT Neck1
					{
						OFFSET 0.000000 1.600000 0.340000
						CHANNELS 3 Zrotation Yrotation Xrotation
						JOINT Head
						{
							OFFSET 0.000000 1.667000 -0.240000
							CHANNELS 3 Zrotation Yrotation Xrotation
							End Site
							{
								OFFSET 0.000000 0.000000 0.000000
							}
						}
					}
				}
				JOINT LeftShoulder
				{
					OFFSET 0.000000 0.000000 0.000000
					CHANNELS 3 Zrotation Yrotation Xrotation
					JOINT LeftArm
					{
						OFFSET 2.700000 1.550000 -0.730000
						CHANNELS 3 Zrotation Yrotation Xrotation
						JOINT LeftForeArm
						{
							OFFSET 5.450000 0.000000 0.000000
							CHANNELS 3 Zrotation Yrotation Xrotation
							JOINT LeftHand
							{
								OFFSET 3.450000 0.000000 0.000000
								CHANNELS 3 Zrotation Yrotation Xrotation
								JOINT LeftHandIndex1
								{
									OFFSET 0.750000 0.000000 0.000000
									CHANNELS 3 Zrotation Yrotation Xrotation
									End Site
									{
										OFFSET 0.000000 0.000000 0.000000
									}
								}
							}
						}
					}
				}
				JOINT RightShoulder
				{
					OFFSET 0.000000 0.000000 0.000000
					CHANNELS 3 Zrotation Yrotation Xrotation
					JOINT RightArm
					{
						OFFSET -2.700000 1.550000 -0.730000
						CHANNELS 3 Zrotation Yrotation Xrotation
						JOINT RightForeArm
						{
							OFFSET -5.450000 0.000000 0.000000
							CHANNELS 3 Zrotation Yrotation Xrotation
							JOINT RightHand
							{
								OFFSET -3.450000 0.000000 0.000000
								CHANNELS 3 Zrotation Yrotation Xrotation
								JOINT RightHandIndex1
								{
									OFFSET -0.750000 0.000000 0.000000
									CHANNELS 3 Zrotation Yrotation Xrotation
									End Site
									{
										OFFSET 0.000000 0.000000 0.000000
									}
								}
							}
						}
					}
				}
			}
		}
	}
}
MOTION
Frames: 4
Frame Time: 0.016667
0.735670 14.619860 -2.269150 -31.317018 -6.681713 57.388253 -16.048153 6.454177 8.187601 -15.076911 -34.093430 -83.123714 30.241821 -4.619156 63.813536 1.907162 10.376406 0.924318 0.685500 0.673360 0.684610 18.847978 -4.636457 6.095732 -28.016881 11.245306 -72.411122 23.361044 -22.064095 62.572398 -2.201480 -11.580864 0.351734 -0.050330 -0.565780 0.175570 -3.413451 -1.178721 -11.637762 2.441916 6.806963 67.512434 -13.623751 5.138932 -6.690746 7.321912 4.229383 -13.525138 6.003535 0.734693 46.529253 -0.389380 5.254480 -11.999940 -6.529138 -42.183438 8.200709 12.665355 -22.066870 -9.863263 16.967135 -8.003996 -1.476025 -3.645064 3.241577 0.168050 -0.374050 0.397990 -0.017550 -7.507122 44.941747 -9.490113 -4.454227 34.774074 -19.054940 -25.131723 84.920194 -22.686747 2.343262 -1.792263 0.577410 -0.352230 -0.402850 -0.080570 
0.734320 14.614460 -2.274720 -32.125576 -5.936071 57.114484 -16.031749 6.478732 8.181332 -13.241956 -33.528820 -83.595480 30.245494 -4.968125 65.477716 1.954469 10.698167 0.837927 0.687430 0.682890 0.676030 18.863881 -4.694030 6.062610 -24.706884 12.435374 -73.908624 16.675200 -18.874135 65.231843 -2.048040 -11.136993 0.466244 -0.034400 -0.543400 0.170010 -3.444041 -1.094123 -11.615965 3.296790 5.985336 67.541509 -14.093107 5.375182 -6.738001 7.507853 4.133175 -13.088576 6.009462 0.843343 46.183768 -0.358310 5.060130 -12.044350 -6.959804 -42.027874 8.446013 12.801141 -21.939433 -9.751798 16.612811 -7.818619 -1.439003 -3.660327 3.218018 0.156130 -0.358090 0.382810 -0.011780 -7.519781 44.815386 -10.159268 -4.548614 35.852549 -18.121373 -19.040833 88.344661 -19.863437 2.350002 -1.976832 0.568040 -0.331850 -0.397160 -0.075290 
0.716510 14.594780 -2.295900 -33.655590 -5.602851 57.173109 -16.014071 6.476217 8.083240 -10.073640 -32.252410 -85.170391 27.964220 -3.739206 68.997684 2.025896 11.090863 0.734469 0.672580 0.674090 0.646230 18.886161 -4.653065 6.210002 -21.368993 14.201970 -76.906250 10.400019 -15.150536 67.014056 -1.881386 -10.555850 0.631333 -0.039000 -0.508340 0.177210 -3.485472 -1.025651 -11.621925 4.044898 5.889525 67.052505 -14.643433 5.981912 -6.934483 7.679915 4.282025 -13.252057 6.488907 0.748434 46.094622 -0.022810 4.667540 -10.876600 -6.941226 -42.130640 8.819281 12.854511 -21.498648 -9.366567 15.275039 -7.195576 -1.264185 -3.702958 3.180998 0.125390 -0.331200 0.361200 -0.001290 -7.938568 44.566925 -10.928796 -4.966832 37.578340 -13.922659 -153.103085 87.103828 -161.607348 2.469733 -2.766041 0.572310 -0.329510 -0.387740 -0.055580 
0.690050 14.563620 -2.311030 -34.674782 -4.642387 56.827906 -16.020298 6.472912 7.971416 -7.244661 -30.926919 -85.722217 26.646862 -3.078753 72.626294 2.118617 11.647712 0.598786 0.666240 0.663720 0.637890 18.897154 -4.561804 6.314620 -16.334937 16.429392 -79.278753 0.764838 -8.964521 68.076867 -1.665057 -9.610047 0.901010 -0.029780 -0.471340 0.188460 -3.473788 -1.083654 -11.568254 5.139902 5.063316 66.659630 -15.300262 6.234779 -7.872042 8.110132 4.383747 -12.588986 7.066787 0.239067 46.735966 -0.683650 4.274880 -9.746150 -8.158129 -42.290771 9.503944 12.734197 -21.051776 -9.161174 13.982099 -6.881764 -1.168485 -3.728351 3.140558 0.107400 -0.297870 0.345940 0.013960 -7.611303 44.734269 -14.212293 -3.000507 41.914064 -6.496164 -91.080432 89.290891 -103.657861 4.360557 4.034693 0.559910 -0.310040 -0.382120 -0.048000 
